<?xml version="1.0" encoding="UTF-8" standalone="no"?><svg xmlns="http://www.w3.org/2000/svg" xmlns:xlink="http://www.w3.org/1999/xlink" contentScriptType="application/ecmascript" contentStyleType="text/css" height="794px" preserveAspectRatio="none" style="width:1531px;height:794px;" version="1.1" viewBox="0 0 1531 794" width="1531px" zoomAndPan="magnify"><defs><filter height="300%" id="f1s71rxm64pk8u" width="300%" x="-1" y="-1"><feGaussianBlur result="blurOut" stdDeviation="2.0"/><feColorMatrix in="blurOut" result="blurOut2" type="matrix" values="0 0 0 0 0 0 0 0 0 0 0 0 0 0 0 0 0 0 .4 0"/><feOffset dx="4.0" dy="4.0" in="blurOut2" result="blurOut3"/><feBlend in="SourceGraphic" in2="blurOut3" mode="normal"/></filter></defs><g><!--cluster Inner--><rect fill="#FFFFFF" filter="url(#f1s71rxm64pk8u)" height="668" rx="12.5" ry="12.5" style="stroke: #000000; stroke-width: 1.5;" width="1310" x="169.5" y="115"/><path d="M220.5,116 L220.5,124.2969 L210.5,134.2969 L169.5,134.2969 " fill="none" style="stroke: #000000; stroke-width: 1.5;"/><text fill="#000000" font-family="sans-serif" font-size="14" font-weight="bold" lengthAdjust="spacingAndGlyphs" textLength="41" x="172.5" y="128.9951">Inner</text><!--entity Glance--><rect fill="#FEFECE" filter="url(#f1s71rxm64pk8u)" height="36.2969" rx="12.5" ry="12.5" style="stroke: #000000; stroke-width: 1.5;" width="68" x="313.5" y="610"/><text fill="#000000" font-family="sans-serif" font-size="14" lengthAdjust="spacingAndGlyphs" textLength="48" x="323.5" y="632.9951">Glance</text><!--entity Nova--><rect fill="#FEFECE" filter="url(#f1s71rxm64pk8u)" height="36.2969" rx="12.5" ry="12.5" style="stroke: #000000; stroke-width: 1.5;" width="54" x="1263.5" y="497"/><text fill="#000000" font-family="sans-serif" font-size="14" lengthAdjust="spacingAndGlyphs" textLength="34" x="1273.5" y="519.9951">Nova</text><!--entity Sahara--><rect fill="#FEFECE" filter="url(#f1s71rxm64pk8u)" height="36.2969" rx="12.5" ry="12.5" style="stroke: #000000; stroke-width: 1.5;" width="67" x="885" y="158"/><text fill="#000000" font-family="sans-serif" font-size="14" lengthAdjust="spacingAndGlyphs" textLength="47" x="895" y="180.9951">Sahara</text><!--entity Swift--><rect fill="#FEFECE" filter="url(#f1s71rxm64pk8u)" height="36.2969" rx="12.5" ry="12.5" style="stroke: #000000; stroke-width: 1.5;" width="52" x="409.5" y="723"/><text fill="#000000" font-family="sans-serif" font-size="14" lengthAdjust="spacingAndGlyphs" textLength="32" x="419.5" y="745.9951">Swift</text><!--entity VMs--><rect fill="#FEFECE" filter="url(#f1s71rxm64pk8u)" height="36.2969" rx="12.5" ry="12.5" style="stroke: #000000; stroke-width: 1.5;" width="49" x="1036" y="610"/><text fill="#000000" font-family="sans-serif" font-size="14" lengthAdjust="spacingAndGlyphs" textLength="29" x="1046" y="632.9951">VMs</text><!--entity Neutron--><rect fill="#FEFECE" filter="url(#f1s71rxm64pk8u)" height="36.2969" rx="12.5" ry="12.5" style="stroke: #000000; stroke-width: 1.5;" width="76" x="820.5" y="384"/><text fill="#000000" font-family="sans-serif" font-size="14" lengthAdjust="spacingAndGlyphs" textLength="56" x="830.5" y="406.9951">Neutron</text><!--entity Cinder--><rect fill="#FEFECE" filter="url(#f1s71rxm64pk8u)" height="36.2969" rx="12.5" ry="12.5" style="stroke: #000000; stroke-width: 1.5;" width="65" x="1353" y="497"/><text fill="#000000" font-family="sans-serif" font-size="14" lengthAdjust="spacingAndGlyphs" textLength="45" x="1363" y="519.9951">Cinder</text><!--entity Ironic--><rect fill="#FEFECE" filter="url(#f1s71rxm64pk8u)" height="36.2969" rx="12.5" ry="12.5" style="stroke: #000000; stroke-width: 1.5;" width="57" x="896" y="497"/><text fill="#000000" font-family="sans-serif" font-size="14" lengthAdjust="spacingAndGlyphs" textLength="37" x="906" y="519.9951">Ironic</text><!--entity Trove--><rect fill="#FEFECE" filter="url(#f1s71rxm64pk8u)" height="36.2969" rx="12.5" ry="12.5" style="stroke: #000000; stroke-width: 1.5;" width="59" x="579" y="384"/><text fill="#000000" font-family="sans-serif" font-size="14" lengthAdjust="spacingAndGlyphs" textLength="39" x="589" y="406.9951">Trove</text><!--entity Heat--><rect fill="#FEFECE" filter="url(#f1s71rxm64pk8u)" height="36.2969" rx="12.5" ry="12.5" style="stroke: #000000; stroke-width: 1.5;" width="52" x="892.5" y="271"/><text fill="#000000" font-family="sans-serif" font-size="14" lengthAdjust="spacingAndGlyphs" textLength="32" x="902.5" y="293.9951">Heat</text><!--entity Keystone--><rect fill="#FEFECE" filter="url(#f1s71rxm64pk8u)" height="36.2969" rx="12.5" ry="12.5" style="stroke: #000000; stroke-width: 1.5;" width="85" x="6" y="8"/><text fill="#000000" font-family="sans-serif" font-size="14" lengthAdjust="spacingAndGlyphs" textLength="65" x="16" y="30.9951">Keystone</text><!--entity Ceilometer--><rect fill="#FEFECE" filter="url(#f1s71rxm64pk8u)" height="36.2969" rx="12.5" ry="12.5" style="stroke: #000000; stroke-width: 1.5;" width="95" x="130" y="8"/><text fill="#000000" font-family="sans-serif" font-size="14" lengthAdjust="spacingAndGlyphs" textLength="75" x="140" y="30.9951">Ceilometer</text><!--entity Horizon--><rect fill="#FEFECE" filter="url(#f1s71rxm64pk8u)" height="36.2969" rx="12.5" ry="12.5" style="stroke: #000000; stroke-width: 1.5;" width="73" x="260" y="8"/><text fill="#000000" font-family="sans-serif" font-size="14" lengthAdjust="spacingAndGlyphs" textLength="53" x="270" y="30.9951">Horizon</text><!--link Keystone to Inner--><path d="M54.8714,44.084 C60.4098,57.616 69.2984,76.578 80.5,91 C97.718,113.168 121.4853,133.8633 141.1838,149.1654 C151.033,156.8164 159.8651,163.1192 166.3527,167.5837 C167.1636,168.1417 167.938,168.6711 168.6731,169.1707 C168.8568,169.2956 169.0382,169.4187 169.217,169.5399 C169.3064,169.6005 169.3952,169.6606 169.4834,169.7202 " fill="none" id="Keystone-Inner" style="stroke: #A80036; stroke-width: 1.0;"/><polygon fill="#A80036" points="169.4834,169.7202,164.2711,161.3637,165.3423,166.9182,159.7878,167.9894,169.4834,169.7202" style="stroke: #A80036; stroke-width: 1.0;"/><text fill="#000000" font-family="sans-serif" font-size="13" lengthAdjust="spacingAndGlyphs" textLength="87" x="81.5" y="87.0669">Provides auth</text><!--link Ceilometer to Inner--><path d="M177.5,44.267 C177.5,53.8748 177.5,66.6711 177.5,80.5049 C177.5,87.4217 177.5,94.5979 177.5,101.7646 C177.5,105.3479 177.5,108.9288 177.5,112.4737 C177.5,112.9169 177.5,113.3594 177.5,113.8013 C177.5,114.0223 177.5,114.2431 177.5,114.4637 " fill="none" id="Ceilometer-Inner" style="stroke: #A80036; stroke-width: 1.0;"/><polygon fill="#A80036" points="177.5,114.4637,181.5,105.4637,177.5,109.4637,173.5,105.4637,177.5,114.4637" style="stroke: #A80036; stroke-width: 1.0;"/><text fill="#000000" font-family="sans-serif" font-size="13" lengthAdjust="spacingAndGlyphs" textLength="48" x="178.5" y="87.0669">Monitor</text><!--link Horizon to Inner--><path d="M285.13,44.145 C274.248,59.074 256.423,80 235.5,91 C215.58,101.473 200.98,82.665 185.5,99 C182.671,101.9854 180.4098,105.3622 178.6205,108.9918 C177.7258,110.8066 176.9491,112.6847 176.2783,114.6086 C176.2364,114.7288 176.1949,114.8493 176.1538,114.9699 " fill="none" id="Horizon-Inner" style="stroke: #A80036; stroke-width: 1.0;"/><polygon fill="#A80036" points="176.1538,114.9699,182.8431,107.7413,177.7666,110.2371,175.2707,105.1607,176.1538,114.9699" style="stroke: #A80036; stroke-width: 1.0;"/><text fill="#000000" font-family="sans-serif" font-size="13" lengthAdjust="spacingAndGlyphs" textLength="71" x="260.5" y="87.0669">Provides UI</text><!--link Glance to Swift--><path d="M355.636,646.193 C362.4,659.614 372.788,678.373 384.5,693 C392.002,702.369 401.395,711.5688 410.069,719.3097 " fill="none" id="Glance-Swift" style="stroke: #A80036; stroke-width: 1.0;"/><polygon fill="#A80036" points="414.257,722.987,410.1322,714.0435,410.4994,719.6884,404.8545,720.0556,414.257,722.987" style="stroke: #A80036; stroke-width: 1.0;"/><text fill="#000000" font-family="sans-serif" font-size="13" lengthAdjust="spacingAndGlyphs" textLength="108" x="385.5" y="689.0669">Stores images in</text><!--link Nova to VMs--><path d="M1263.43,524.996 C1254.86,527.716 1245.32,530.613 1236.5,533 C1178.43,548.713 1154.29,529.229 1104.5,563 C1089.16,573.404 1077.61,591.088 1070.2,605.234 " fill="none" id="Nova-VMs" style="stroke: #A80036; stroke-width: 1.0;"/><polygon fill="#A80036" points="1067.85,609.88,1075.4797,603.652,1070.1054,605.4176,1068.3399,600.0433,1067.85,609.88" style="stroke: #A80036; stroke-width: 1.0;"/><text fill="#000000" font-family="sans-serif" font-size="13" lengthAdjust="spacingAndGlyphs" textLength="57" x="1105.5" y="576.0669">Provision</text><!--link Sahara to Glance--><path d="M884.998,192.175 C883.482,192.802 881.978,193.414 880.5,194 C641.677,288.772 483.364,174.578 334.5,384 C325.23,397.041 325.53,406.751 334.5,420 C354.627,449.729 389.373,420.271 409.5,450 C439.594,494.45 363.611,442.6 324.5,497 C301.355,529.193 319.993,577.24 334.513,605.014 " fill="none" id="Sahara-Glance" style="stroke: #A80036; stroke-width: 1.0;"/><polygon fill="#A80036" points="336.983,609.624,336.2581,599.8019,334.6215,605.2168,329.2066,603.5802,336.983,609.624" style="stroke: #A80036; stroke-width: 1.0;"/><text fill="#000000" font-family="sans-serif" font-size="13" lengthAdjust="spacingAndGlyphs" textLength="170" x="335.5" y="406.5669">Registers hadoop image in</text><!--link Sahara to Nova--><path d="M952.293,178.968 C988.996,182.671 1047.7,193.33 1087.5,224 C1140.51,264.849 1112.15,311.077 1163.5,354 C1193.27,378.889 1218.3,356.321 1245.5,384 C1274.65,413.668 1284.97,463.137 1288.58,491.733 " fill="none" id="Sahara-Nova" style="stroke: #A80036; stroke-width: 1.0;"/><polygon fill="#A80036" points="1289.18,496.82,1292.0963,487.4128,1288.5933,491.8545,1284.1516,488.3515,1289.18,496.82" style="stroke: #A80036; stroke-width: 1.0;"/><text fill="#000000" font-family="sans-serif" font-size="13" lengthAdjust="spacingAndGlyphs" textLength="223" x="1164.5" y="350.0669">Boots data processing instance via</text><!--link Sahara to VMs--><path d="M952.032,177.665 C1038.98,181.303 1273.22,203.641 1392.5,337 C1441.59,391.884 1425.86,423.999 1435.5,497 C1437.59,512.862 1443.85,519.353 1435.5,533 C1411.53,572.162 1387.42,566.602 1343.5,580 C1236.88,612.526 1201.26,577.936 1094.5,610 C1093.08,610.427 1091.64,610.911 1090.21,611.437 " fill="none" id="Sahara-VMs" style="stroke: #A80036; stroke-width: 1.0;"/><polygon fill="#A80036" points="1085.35,613.373,1095.1919,613.7444,1089.9924,611.516,1092.2207,606.3166,1085.35,613.373" style="stroke: #A80036; stroke-width: 1.0;"/><text fill="#000000" font-family="sans-serif" font-size="13" lengthAdjust="spacingAndGlyphs" textLength="89" x="1430.5" y="406.5669">Assigns job to</text><!--link Sahara to Swift--><path d="M884.711,192.722 C883.3,193.185 881.893,193.614 880.5,194 C671.424,251.874 588.148,165.663 398.5,271 C302.853,324.126 269.914,348.326 229.5,450 C204.199,513.653 102.178,400.16 295.5,646 C324.909,683.398 373.396,711.1944 404.888,726.5094 " fill="none" id="Sahara-Swift" style="stroke: #A80036; stroke-width: 1.0;"/><polygon fill="#A80036" points="409.407,728.6781,403.025,721.1768,404.8996,726.514,399.5624,728.3886,409.407,728.6781" style="stroke: #A80036; stroke-width: 1.0;"/><text fill="#000000" font-family="sans-serif" font-size="13" lengthAdjust="spacingAndGlyphs" textLength="170" x="230.5" y="463.0669">Saves data or job binary in</text><!--link Sahara to Heat--><path d="M918.5,194.344 C918.5,213.568 918.5,244.63 918.5,265.661 " fill="none" id="Sahara-Heat" style="stroke: #A80036; stroke-width: 1.0;"/><polygon fill="#A80036" points="918.5,270.778,922.5,261.778,918.5,265.778,914.5,261.778,918.5,270.778" style="stroke: #A80036; stroke-width: 1.0;"/><text fill="#000000" font-family="sans-serif" font-size="13" lengthAdjust="spacingAndGlyphs" textLength="159" x="919.5" y="237.0669">Orchestrates clusters via</text><!--link Neutron to Ironic--><path d="M853.174,420.066 C849.98,433.588 847.856,452.545 855.5,467 C863.17,481.505 877.549,492.372 891.204,499.982 " fill="none" id="Neutron-Ironic" style="stroke: #A80036; stroke-width: 1.0;"/><polygon fill="#A80036" points="895.796,502.439,889.7462,494.6673,891.387,500.0809,885.9733,501.7217,895.796,502.439" style="stroke: #A80036; stroke-width: 1.0;"/><text fill="#000000" font-family="sans-serif" font-size="13" lengthAdjust="spacingAndGlyphs" textLength="157" x="856.5" y="463.0669">Provides PXE network for</text><!--link Neutron to VMs--><path d="M896.692,413.186 C942.637,425.591 1014.19,445.458 1018.5,450 C1023.88,455.667 1046.03,558.321 1055.82,604.645 " fill="none" id="Neutron-VMs" style="stroke: #A80036; stroke-width: 1.0;"/><polygon fill="#A80036" points="1056.89,609.741,1058.9447,600.1089,1055.8572,604.8488,1051.1172,601.7613,1056.89,609.741" style="stroke: #A80036; stroke-width: 1.0;"/><text fill="#000000" font-family="sans-serif" font-size="13" lengthAdjust="spacingAndGlyphs" textLength="203" x="1040.5" y="519.5669">Provides network connection for</text><!--link Ironic to Glance--><path d="M895.857,525.213 C887.119,527.884 877.455,530.697 868.5,533 C691.108,578.613 474.185,610.173 386.77,621.919 " fill="none" id="Ironic-Glance" style="stroke: #A80036; stroke-width: 1.0;"/><polygon fill="#A80036" points="381.701,622.597,391.1519,625.3685,386.6569,621.9341,390.0913,617.4391,381.701,622.597" style="stroke: #A80036; stroke-width: 1.0;"/><text fill="#000000" font-family="sans-serif" font-size="13" lengthAdjust="spacingAndGlyphs" textLength="115" x="728.5" y="576.0669">Fetchs images via</text><!--link Ironic to VMs--><path d="M929.207,533.198 C933.85,547.348 942.209,567.104 955.5,580 C976.422,600.3 1007.62,612.73 1030.57,619.666 " fill="none" id="Ironic-VMs" style="stroke: #A80036; stroke-width: 1.0;"/><polygon fill="#A80036" points="1035.63,621.146,1028.128,614.7648,1030.834,619.7325,1025.8663,622.4385,1035.63,621.146" style="stroke: #A80036; stroke-width: 1.0;"/><text fill="#000000" font-family="sans-serif" font-size="13" lengthAdjust="spacingAndGlyphs" textLength="57" x="956.5" y="576.0669">Provision</text><!--link Trove to Nova--><path d="M615.381,420.271 C622.462,435.505 635.072,456.82 653.5,467 C710.276,498.364 1172.66,485.502 1236.5,497 C1243.73,498.302 1251.34,500.294 1258.5,502.46 " fill="none" id="Trove-Nova" style="stroke: #A80036; stroke-width: 1.0;"/><polygon fill="#A80036" points="1263.37,503.982,1255.9833,497.4676,1258.6,502.4829,1253.5848,505.0996,1263.37,503.982" style="stroke: #A80036; stroke-width: 1.0;"/><text fill="#000000" font-family="sans-serif" font-size="13" lengthAdjust="spacingAndGlyphs" textLength="188" x="654.5" y="463.0669">Boots database instances via</text><!--link Trove to VMs--><path d="M605.949,420.091 C602.853,447.909 601.319,502.892 631.5,533 C686.437,587.804 727.58,546.947 803.5,563 C886.403,580.529 983.127,605.986 1030.81,618.873 " fill="none" id="Trove-VMs" style="stroke: #A80036; stroke-width: 1.0;"/><polygon fill="#A80036" points="1035.83,620.231,1028.1974,614.0066,1031.0057,618.9171,1026.0952,621.7254,1035.83,620.231" style="stroke: #A80036; stroke-width: 1.0;"/><text fill="#000000" font-family="sans-serif" font-size="13" lengthAdjust="spacingAndGlyphs" textLength="245" x="632.5" y="519.5669">Provision, operation and management</text><!--link Trove to Swift--><path d="M601.314,420.03 C589.949,445.898 566.15,495.99 537.5,533 C525.566,548.416 513.728,545.327 505.5,563 C481.079,615.455 525.824,641.996 498.5,693 C491.326,706.391 478.477,717.0238 466.246,724.7647 " fill="none" id="Trove-Swift" style="stroke: #A80036; stroke-width: 1.0;"/><polygon fill="#A80036" points="461.779,727.4855,471.5461,726.2191,466.049,724.8842,467.3839,719.3871,461.779,727.4855" style="stroke: #A80036; stroke-width: 1.0;"/><text fill="#000000" font-family="sans-serif" font-size="13" lengthAdjust="spacingAndGlyphs" textLength="140" x="506.5" y="576.0669">Backups databases in</text><!--link Trove to Glance--><path d="M586.155,420.129 C576.094,428.485 564.486,439.079 555.5,450 C549.93,456.769 552.703,462.004 545.5,467 C482.095,510.973 429.903,443.294 374.5,497 C345.519,525.093 343.552,575.575 345.202,604.675 " fill="none" id="Trove-Glance" style="stroke: #A80036; stroke-width: 1.0;"/><polygon fill="#A80036" points="345.547,609.85,348.9391,600.6037,345.2142,604.8611,340.9569,601.1362,345.547,609.85" style="stroke: #A80036; stroke-width: 1.0;"/><text fill="#000000" font-family="sans-serif" font-size="13" lengthAdjust="spacingAndGlyphs" textLength="157" x="375.5" y="519.5669">Registers gust images in</text><!--link Heat to Glance--><path d="M892.165,293.304 C831.289,301.698 677.187,327.323 561.5,384 C537.871,395.576 537.067,406.469 514.5,420 C486.866,436.57 477.408,435.768 448.5,450 C434.051,457.113 431.043,460.081 416.5,467 C385.566,481.717 366.118,469.642 345.5,497 C321.968,528.225 331.197,576.713 339.626,604.806 " fill="none" id="Heat-Glance" style="stroke: #A80036; stroke-width: 1.0;"/><polygon fill="#A80036" points="341.183,609.806,342.3254,600.0236,339.696,605.0322,334.6874,602.4028,341.183,609.806" style="stroke: #A80036; stroke-width: 1.0;"/><text fill="#000000" font-family="sans-serif" font-size="13" lengthAdjust="spacingAndGlyphs" textLength="87" x="449.5" y="463.0669">Orchestration</text><!--link Heat to Nova--><path d="M936.954,307.009 C945.283,315.42 954.746,326.093 961.5,337 C982.316,370.612 964.462,393.17 993.5,420 C1081.7,501.497 1139.89,455.278 1252.5,497 C1254.48,497.734 1256.51,498.523 1258.54,499.344 " fill="none" id="Heat-Nova" style="stroke: #A80036; stroke-width: 1.0;"/><polygon fill="#A80036" points="1263.28,501.307,1256.4974,494.1658,1258.661,499.3925,1253.4343,501.5562,1263.28,501.307" style="stroke: #A80036; stroke-width: 1.0;"/><text fill="#000000" font-family="sans-serif" font-size="13" lengthAdjust="spacingAndGlyphs" textLength="87" x="994.5" y="406.5669">Orchestration</text><!--link Heat to Neutron--><path d="M894.23,307.116 C884.709,315.103 874.617,325.41 868.5,337 C861.794,349.705 859.29,365.668 858.465,378.473 " fill="none" id="Heat-Neutron" style="stroke: #A80036; stroke-width: 1.0;"/><polygon fill="#A80036" points="858.207,383.748,862.6419,374.9542,858.4513,378.754,854.6515,374.5633,858.207,383.748" style="stroke: #A80036; stroke-width: 1.0;"/><text fill="#000000" font-family="sans-serif" font-size="13" lengthAdjust="spacingAndGlyphs" textLength="87" x="869.5" y="350.0669">Orchestration</text><!--link Heat to Cinder--><path d="M944.609,302.523 C1023.02,340.132 1256.64,452.192 1348.15,496.085 " fill="none" id="Heat-Cinder" style="stroke: #A80036; stroke-width: 1.0;"/><polygon fill="#A80036" points="1352.92,498.374,1346.5278,490.8814,1348.4097,496.216,1343.075,498.0979,1352.92,498.374" style="stroke: #A80036; stroke-width: 1.0;"/><text fill="#000000" font-family="sans-serif" font-size="13" lengthAdjust="spacingAndGlyphs" textLength="87" x="1183.5" y="406.5669">Orchestration</text><!--link Cinder to VMs--><path d="M1352.83,527.609 C1347.08,529.506 1341.14,531.379 1335.5,533 C1279.76,549.02 1263.55,544.753 1208.5,563 C1202.5,564.988 1131.35,596.003 1089.93,614.115 " fill="none" id="Cinder-VMs" style="stroke: #A80036; stroke-width: 1.0;"/><polygon fill="#A80036" points="1085.28,616.149,1095.1286,616.2142,1089.8624,614.1486,1091.928,608.8823,1085.28,616.149" style="stroke: #A80036; stroke-width: 1.0;"/><text fill="#000000" font-family="sans-serif" font-size="13" lengthAdjust="spacingAndGlyphs" textLength="129" x="1209.5" y="576.0669">Provides volumes to</text><!--link Cinder to Swift--><path d="M1379.53,533.227 C1373.61,547.791 1363.15,568.128 1347.5,580 C1257.66,648.163 1212.99,623.422 1102.5,646 C860.172,695.52 562.982,727.3768 466.987,736.9555 " fill="none" id="Cinder-Swift" style="stroke: #A80036; stroke-width: 1.0;"/><polygon fill="#A80036" points="461.76,737.4749,471.1113,740.5656,466.7355,736.9806,470.3205,732.6048,461.76,737.4749" style="stroke: #A80036; stroke-width: 1.0;"/><text fill="#000000" font-family="sans-serif" font-size="13" lengthAdjust="spacingAndGlyphs" textLength="127" x="1298.5" y="632.5669">Backups volumes in</text><!--
@startuml
skinparam roundcorner 25

rectangle Keystone
rectangle Ceilometer
rectangle Horizon

Keystone -down-> Inner : Provides auth
Ceilometer -down-> Inner : Monitor
Horizon -down-> Inner : Provides UI

frame "Inner" {
    rectangle Glance
    rectangle Nova
    rectangle Sahara
    rectangle Swift
    rectangle VMs
    rectangle Neutron
    rectangle Cinder
    rectangle Ironic
    rectangle Trove
    rectangle Heat
}

Glance - -> Swift: Stores images in

Nova - -> VMs: Provision

Sahara - -> Glance: Registers hadoop image in
Sahara - -> Nova: Boots data processing instance via
Sahara - -> VMs: Assigns job to
Sahara - -> Swift: Saves data or job binary in
Sahara - -> Heat: Orchestrates clusters via

Neutron - -> Ironic: Provides PXE network for
Neutron - -> VMs: Provides network connection for

Ironic - -> Glance: Fetchs images via
Ironic - -> VMs: Provision

Trove - -> Nova: Boots database instances via
Trove - -> VMs: Provision, operation and management
Trove - -> Swift: Backups databases in
Trove - -> Glance:Registers gust images in

Heat - -> Glance: Orchestration
Heat - -> Nova: Orchestration
Heat - -> Neutron: Orchestration
Heat - -> Cinder: Orchestration

Cinder - -> VMs: Provides volumes to
Cinder - -> Swift: Backups volumes in
@enduml

PlantUML version 1.2019.06(Sat May 25 01:10:25 CST 2019)
(GPL source distribution)
Java Runtime: OpenJDK Runtime Environment
JVM: OpenJDK 64-Bit Server VM
Java Version: 11.0.2+9
Operating System: Linux
OS Version: 4.15.0-1028-gcp
Default Encoding: UTF-8
Language: en
Country: US
--></g></svg>